<svg id="svg" version="1.1" xmlns="http://www.w3.org/2000/svg" xmlns:xlink="http://www.w3.org/1999/xlink" width="400" height="225" viewBox="0, 0, 400,225"><g id="svgg"><path id="path0" d="M209.306 54.514 C 209.062 54.758,209.142 136.417,209.389 138.794 C 211.512 159.289,231.691 170.897,250.197 162.268 C 253.162 160.885,257.057 158.113,256.845 157.535 C 256.694 157.121,246.813 145.935,246.543 145.871 C 246.388 145.835,245.832 146.101,245.305 146.463 C 238.234 151.328,229.613 148.660,226.947 140.780 C 226.147 138.414,226.020 134.466,226.086 113.958 L 226.146 95.521 236.077 95.417 C 241.538 95.359,246.046 95.266,246.093 95.208 C 246.140 95.151,246.281 94.823,246.408 94.479 C 247.906 90.404,249.440 86.271,249.578 85.938 C 249.672 85.708,249.862 85.193,250.000 84.792 C 250.138 84.391,250.331 83.875,250.429 83.646 C 250.859 82.642,252.083 79.192,252.083 78.983 C 252.083 78.818,248.404 78.738,239.115 78.699 L 226.146 78.646 226.092 66.510 L 226.038 54.375 217.741 54.375 C 213.178 54.375,209.382 54.438,209.306 54.514 M84.896 77.420 C 68.134 79.911,58.869 93.417,63.572 108.506 C 66.121 116.685,71.152 121.002,85.104 126.982 C 94.619 131.061,95.979 131.801,98.086 134.054 C 102.284 138.541,101.076 144.736,95.447 147.589 C 88.061 151.332,79.040 148.562,71.961 140.377 L 71.116 139.401 66.652 142.633 C 58.476 148.553,57.910 148.988,58.061 149.238 C 59.638 151.855,64.401 156.446,68.062 158.876 C 84.349 169.690,107.347 165.744,114.893 150.841 C 115.976 148.701,116.615 146.702,117.279 143.375 C 117.598 141.780,117.551 137.240,117.196 135.417 C 115.460 126.477,109.606 120.527,97.123 115.015 C 96.127 114.575,94.677 113.923,93.901 113.566 C 93.125 113.209,92.452 112.917,92.405 112.917 C 92.298 112.917,90.066 111.897,87.501 110.677 C 80.912 107.542,78.170 103.526,79.552 99.032 C 81.902 91.386,93.245 91.033,100.462 98.382 C 100.773 98.699,101.084 98.958,101.153 98.958 C 101.337 98.958,113.297 90.228,113.448 89.982 C 113.876 89.290,109.568 84.937,105.891 82.344 C 100.976 78.880,90.930 76.523,84.896 77.420 M119.583 78.946 C 119.583 79.057,119.670 79.362,119.775 79.626 C 119.880 79.889,120.295 80.995,120.696 82.083 C 121.098 83.172,122.049 85.750,122.811 87.813 C 123.572 89.875,124.385 92.078,124.618 92.708 C 124.850 93.339,125.120 94.042,125.217 94.271 C 125.314 94.500,125.731 95.625,126.144 96.771 C 127.069 99.337,127.487 100.466,128.303 102.604 C 128.653 103.521,129.609 106.099,130.427 108.333 C 131.244 110.568,132.132 112.958,132.399 113.646 C 132.666 114.333,133.227 115.833,133.645 116.979 C 134.063 118.125,134.812 120.141,135.310 121.458 C 135.808 122.776,137.354 126.948,138.747 130.729 C 140.139 134.510,141.357 137.792,141.452 138.021 C 141.548 138.250,141.816 138.953,142.048 139.583 C 142.281 140.214,143.499 143.495,144.756 146.875 C 146.013 150.255,147.383 153.958,147.801 155.104 C 149.736 160.405,150.647 162.754,150.892 163.073 C 151.257 163.547,168.886 163.440,169.142 162.963 C 169.251 162.759,169.818 161.282,170.402 159.682 C 170.986 158.081,171.549 156.583,171.653 156.354 C 171.757 156.125,172.077 155.281,172.365 154.479 C 173.320 151.821,175.630 145.547,176.278 143.854 C 176.629 142.938,177.104 141.672,177.333 141.042 C 177.562 140.411,177.830 139.708,177.928 139.479 C 178.027 139.250,178.445 138.125,178.857 136.979 C 179.269 135.833,179.686 134.708,179.783 134.479 C 179.880 134.250,180.731 131.953,181.674 129.375 C 182.617 126.797,183.744 123.750,184.179 122.604 C 184.894 120.720,185.639 118.710,187.846 112.708 C 189.376 108.550,190.043 106.756,190.211 106.354 C 190.307 106.125,190.729 105.000,191.150 103.854 C 191.570 102.708,192.196 101.021,192.540 100.104 C 192.885 99.188,193.354 97.922,193.583 97.292 C 193.812 96.661,194.077 95.958,194.173 95.729 C 194.269 95.500,195.204 92.969,196.251 90.104 C 197.299 87.240,198.421 84.193,198.745 83.333 C 199.594 81.084,199.612 81.035,199.999 79.950 C 200.193 79.407,200.303 78.915,200.245 78.856 C 199.989 78.600,182.551 78.750,182.352 79.010 C 182.243 79.154,181.942 79.880,181.683 80.625 C 181.424 81.370,180.943 82.682,180.613 83.542 C 180.283 84.401,178.974 87.917,177.702 91.354 C 176.431 94.792,174.967 98.729,174.449 100.104 C 173.931 101.479,173.318 103.120,173.087 103.750 C 172.856 104.380,172.590 105.083,172.495 105.313 C 172.399 105.542,171.793 107.182,171.148 108.958 C 170.502 110.734,169.708 112.891,169.382 113.750 C 169.056 114.609,168.445 116.250,168.025 117.396 C 167.604 118.542,167.183 119.667,167.088 119.896 C 166.993 120.125,166.711 120.875,166.460 121.563 C 166.210 122.250,165.789 123.375,165.525 124.063 C 164.880 125.741,164.408 127.012,163.013 130.833 C 160.826 136.820,160.145 138.542,159.964 138.542 C 159.743 138.542,159.727 138.504,158.010 133.854 C 157.248 131.792,156.015 128.464,155.271 126.458 C 154.526 124.453,153.309 121.172,152.567 119.167 C 151.824 117.161,151.136 115.333,151.037 115.104 C 150.938 114.875,150.479 113.640,150.017 112.359 C 149.555 111.079,148.950 109.438,148.672 108.714 C 148.222 107.543,147.590 105.838,146.213 102.083 C 145.982 101.453,145.713 100.750,145.616 100.521 C 145.519 100.292,144.912 98.651,144.267 96.875 C 143.623 95.099,143.014 93.458,142.915 93.229 C 142.816 93.000,142.113 91.125,141.353 89.063 C 140.592 87.000,139.706 84.609,139.382 83.750 C 139.059 82.891,138.516 81.438,138.175 80.521 L 137.556 78.854 128.570 78.800 C 122.907 78.766,119.583 78.820,119.583 78.946 M352.025 100.370 C 350.904 101.508,350.897 101.542,351.452 103.350 C 351.677 104.086,352.195 105.801,352.602 107.163 C 353.009 108.524,353.381 109.701,353.428 109.777 C 353.855 110.467,352.981 110.354,349.361 109.250 C 344.182 107.671,344.660 107.698,343.490 108.923 C 342.212 110.259,342.224 110.305,344.010 110.840 C 344.841 111.089,345.755 111.371,346.042 111.466 C 346.328 111.561,347.266 111.842,348.125 112.091 C 348.984 112.340,349.922 112.616,350.208 112.706 C 350.495 112.795,351.151 112.984,351.667 113.126 C 354.423 113.885,354.397 113.869,356.876 116.355 C 359.632 119.119,359.533 119.086,360.865 117.675 C 362.049 116.420,362.243 116.854,359.130 113.802 C 356.862 111.580,356.986 111.809,355.838 107.708 C 353.242 98.434,353.480 98.892,352.025 100.370 M335.743 116.766 C 334.281 118.205,334.269 118.079,336.223 122.125 C 337.124 123.993,338.916 127.724,340.204 130.417 C 343.018 136.299,342.630 135.856,343.929 134.675 C 345.216 133.503,345.216 133.494,344.167 131.434 C 343.708 130.534,343.333 129.675,343.333 129.523 C 343.333 128.945,348.246 124.354,348.669 124.537 C 348.885 124.630,349.759 125.051,350.609 125.473 C 352.320 126.322,352.102 126.362,353.684 124.912 C 354.800 123.889,354.748 123.814,351.986 122.498 C 350.836 121.950,348.396 120.778,346.563 119.893 C 336.129 114.861,337.327 115.207,335.743 116.766 M341.878 121.050 C 343.702 121.971,345.251 122.818,345.322 122.932 C 345.472 123.174,342.317 126.458,341.934 126.458 C 341.703 126.458,338.333 119.995,338.333 119.552 C 338.333 119.266,338.412 119.299,341.878 121.050 M320.622 131.983 L 319.487 133.132 325.996 139.639 L 332.505 146.146 336.294 142.342 L 340.084 138.539 339.165 137.603 C 337.985 136.401,338.282 136.275,335.386 139.198 L 332.878 141.729 327.427 136.281 C 324.429 133.285,321.927 130.833,321.866 130.833 C 321.806 130.833,321.246 131.350,320.622 131.983 M314.651 139.050 C 313.234 139.493,312.549 140.034,309.385 143.212 L 306.374 146.236 307.927 147.841 C 312.403 152.469,319.127 159.167,319.298 159.167 C 319.405 159.167,320.000 158.654,320.619 158.027 L 321.744 156.888 319.609 154.786 C 318.434 153.630,317.503 152.601,317.539 152.498 C 317.575 152.395,318.505 151.393,319.606 150.270 C 322.464 147.356,323.025 145.686,322.021 143.084 C 320.821 139.978,317.499 138.159,314.651 139.050 M317.281 142.519 C 318.780 143.362,319.500 145.124,318.947 146.601 C 318.748 147.134,315.701 150.417,315.406 150.417 C 315.314 150.417,311.542 146.703,310.845 145.925 C 310.682 145.743,313.829 142.690,314.479 142.398 C 315.402 141.984,316.406 142.027,317.281 142.519 " stroke="none" fill="#f9faf9" fill-rule="evenodd"></path><path id="path1" d="M0.000 112.500 L 0.000 225.000 200.000 225.000 L 400.000 225.000 400.000 112.500 L 400.000 0.000 200.000 0.000 L 0.000 0.000 0.000 112.500 M320.521 51.015 C 323.631 51.715,325.956 52.690,328.228 54.248 C 328.914 54.719,329.590 55.151,329.729 55.208 C 330.587 55.561,370.842 95.804,372.137 97.604 C 372.979 98.773,373.519 99.633,374.364 101.146 C 374.556 101.490,374.927 102.333,375.189 103.021 C 375.451 103.708,375.742 104.458,375.834 104.688 C 375.992 105.078,376.096 105.491,376.654 107.957 C 377.380 111.166,376.727 117.182,375.255 120.841 C 373.394 125.467,373.764 125.053,351.518 147.391 C 328.248 170.757,329.181 169.911,324.619 171.809 C 321.426 173.138,320.190 173.376,315.938 173.483 C 296.478 173.973,285.122 152.896,295.934 136.354 C 296.964 134.777,298.933 132.698,308.319 123.269 C 314.457 117.103,319.522 112.014,319.573 111.959 C 319.625 111.905,314.691 106.871,308.608 100.774 C 295.596 87.729,294.717 86.644,293.056 81.563 C 287.382 64.209,302.825 47.033,320.521 51.015 M226.250 66.354 L 226.250 78.542 239.045 78.542 C 253.352 78.542,252.597 78.484,252.193 79.550 C 252.034 79.969,251.469 81.531,250.937 83.021 C 250.405 84.510,249.888 85.917,249.788 86.146 C 249.688 86.375,248.858 88.578,247.944 91.042 L 246.281 95.521 236.253 95.575 L 226.224 95.629 226.322 116.200 C 226.415 135.745,226.471 137.588,227.040 140.158 C 227.912 144.096,231.946 147.851,236.048 148.543 C 239.140 149.064,241.737 148.321,246.099 145.665 C 246.484 145.430,246.728 145.386,246.828 145.531 C 246.911 145.651,249.299 148.394,252.135 151.625 C 254.971 154.857,257.290 157.618,257.287 157.761 C 257.275 158.505,251.101 162.406,248.471 163.332 C 247.765 163.580,247.041 163.859,246.862 163.952 C 246.455 164.164,243.268 164.891,241.434 165.191 C 239.679 165.478,235.647 165.482,234.045 165.198 C 228.315 164.182,225.447 163.097,221.475 160.443 C 215.795 156.647,210.741 148.928,209.592 142.293 C 209.473 141.605,209.281 140.497,209.167 139.831 C 208.932 138.470,208.864 54.539,209.097 54.306 C 209.174 54.229,213.064 54.167,217.743 54.167 L 226.250 54.167 226.250 66.354 M94.063 77.460 C 101.354 78.717,108.358 82.762,112.709 88.230 C 114.067 89.936,114.070 89.925,111.823 91.578 C 103.475 97.719,101.456 99.167,101.239 99.167 C 101.117 99.167,100.249 98.501,99.310 97.688 C 95.668 94.532,93.124 93.482,89.063 93.457 C 83.178 93.422,79.832 96.089,79.618 100.985 C 79.413 105.682,81.992 108.029,92.396 112.610 C 93.885 113.266,95.697 114.072,96.421 114.401 C 97.145 114.731,97.774 115.000,97.820 115.000 C 97.966 115.000,101.928 117.007,103.705 117.981 C 111.170 122.073,115.919 127.964,117.425 135.000 C 117.762 136.575,117.826 142.735,117.517 143.918 C 117.407 144.341,117.207 145.156,117.073 145.729 C 114.852 155.257,105.712 163.179,95.104 164.772 C 89.144 165.667,87.286 165.651,81.386 164.657 C 73.207 163.279,64.072 157.622,58.838 150.693 C 57.408 148.800,57.341 149.030,59.844 147.252 C 61.018 146.417,62.073 145.657,62.188 145.564 C 62.467 145.334,65.888 142.835,67.519 141.667 C 68.240 141.151,69.304 140.375,69.883 139.943 C 71.195 138.965,71.086 138.927,72.891 140.978 C 76.010 144.523,80.473 147.483,84.122 148.427 C 90.268 150.016,97.531 147.603,99.530 143.305 C 102.054 137.882,98.757 132.918,90.417 129.583 C 89.901 129.376,88.870 128.927,88.125 128.583 C 87.380 128.240,85.927 127.613,84.896 127.191 C 82.987 126.409,82.793 126.326,80.417 125.285 C 65.186 118.608,58.989 106.644,63.597 92.813 C 67.246 81.862,80.589 75.138,94.063 77.460 M137.611 78.701 C 137.729 78.785,138.089 79.557,138.409 80.417 C 138.730 81.276,139.073 82.167,139.172 82.396 C 139.271 82.625,139.881 84.266,140.526 86.042 C 141.172 87.818,141.930 89.864,142.210 90.589 C 142.490 91.313,143.098 92.954,143.560 94.234 C 144.023 95.515,144.670 97.266,144.998 98.125 C 145.326 98.984,146.081 101.000,146.675 102.604 C 147.269 104.208,147.971 106.083,148.234 106.771 C 148.497 107.458,149.336 109.708,150.097 111.771 C 150.859 113.833,151.664 115.979,151.887 116.538 C 152.109 117.098,152.292 117.646,152.292 117.757 C 152.292 117.867,152.442 118.300,152.625 118.719 C 153.211 120.052,153.288 120.253,154.476 123.542 C 155.117 125.318,155.723 126.958,155.822 127.188 C 155.920 127.417,156.192 128.120,156.425 128.750 C 159.204 136.264,159.915 138.081,160.026 137.958 C 160.098 137.878,160.348 137.248,160.583 136.558 C 160.817 135.868,161.307 134.556,161.671 133.641 C 162.036 132.727,162.610 131.182,162.948 130.208 C 163.285 129.234,163.663 128.203,163.787 127.917 C 164.203 126.963,164.347 126.581,165.408 123.646 C 165.988 122.042,166.781 119.885,167.171 118.854 C 167.560 117.823,168.226 116.042,168.650 114.896 C 169.074 113.750,169.789 111.828,170.239 110.625 C 170.688 109.422,171.299 107.781,171.595 106.979 C 171.891 106.177,172.207 105.333,172.296 105.104 C 172.386 104.875,172.665 104.125,172.917 103.438 C 173.168 102.750,173.455 102.000,173.553 101.771 C 173.652 101.542,174.070 100.417,174.482 99.271 C 174.894 98.125,175.313 97.000,175.413 96.771 C 175.514 96.542,175.775 95.839,175.993 95.208 C 176.212 94.578,177.024 92.375,177.798 90.313 C 178.571 88.250,179.719 85.156,180.349 83.438 C 181.506 80.279,181.797 79.525,182.078 78.958 C 182.256 78.599,200.119 78.369,200.471 78.721 C 200.668 78.918,199.809 81.457,197.466 87.604 C 196.594 89.891,195.799 92.014,194.893 94.479 C 192.803 100.168,191.200 104.479,187.458 114.479 C 187.115 115.396,186.783 116.333,186.720 116.563 C 186.658 116.792,186.541 117.073,186.460 117.188 C 186.379 117.302,186.155 117.911,185.961 118.542 C 185.767 119.172,185.519 119.898,185.409 120.156 C 185.081 120.922,184.847 121.525,184.618 122.188 C 184.499 122.531,183.891 124.172,183.267 125.833 C 182.642 127.495,181.600 130.307,180.950 132.083 C 180.300 133.859,179.686 135.500,179.584 135.729 C 179.482 135.958,179.168 136.802,178.887 137.604 C 178.221 139.501,176.280 144.776,176.051 145.313 C 175.755 146.002,175.200 147.502,174.548 149.375 C 174.209 150.349,173.750 151.543,173.528 152.029 C 173.306 152.515,173.125 152.983,173.126 153.071 C 173.126 153.158,172.790 154.120,172.380 155.208 C 171.969 156.297,171.461 157.656,171.252 158.229 C 170.063 161.475,169.256 163.455,169.069 163.586 C 168.952 163.667,164.868 163.739,159.994 163.746 C 150.404 163.759,150.683 163.791,150.256 162.604 C 149.410 160.249,147.648 155.448,147.503 155.104 C 147.406 154.875,146.798 153.234,146.151 151.458 C 145.505 149.682,144.709 147.526,144.383 146.667 C 144.056 145.807,143.460 144.214,143.057 143.125 C 142.654 142.036,141.435 138.755,140.347 135.833 C 139.260 132.911,138.030 129.583,137.614 128.438 C 137.198 127.292,136.777 126.167,136.678 125.938 C 136.580 125.708,136.293 124.958,136.042 124.271 C 135.528 122.866,135.372 122.459,135.004 121.563 C 134.862 121.219,134.580 120.422,134.375 119.792 C 134.171 119.161,133.767 118.036,133.477 117.292 C 133.188 116.547,132.418 114.484,131.768 112.708 C 130.706 109.809,130.110 108.210,128.120 102.917 C 127.797 102.057,127.092 100.135,126.554 98.646 C 126.016 97.156,125.399 95.540,125.183 95.054 C 124.968 94.569,124.792 94.089,124.792 93.988 C 124.792 93.888,124.595 93.301,124.354 92.684 C 124.113 92.067,123.794 91.234,123.644 90.833 C 123.349 90.043,123.214 89.677,121.150 84.063 C 120.392 82.000,119.683 80.097,119.574 79.834 C 119.001 78.453,118.396 78.541,128.385 78.545 C 133.341 78.547,137.493 78.617,137.611 78.701 " stroke="none" fill="#131313" fill-rule="evenodd"></path><path id="path2" d="M339.691 65.763 C 343.151 71.045,344.333 79.113,342.494 84.896 C 342.384 85.240,342.161 85.943,341.997 86.458 C 341.685 87.440,340.811 89.392,340.365 90.104 C 338.557 92.989,337.305 94.377,328.919 102.796 C 324.020 107.714,319.985 111.813,319.953 111.905 C 319.922 111.998,315.161 116.835,309.375 122.656 C 298.413 133.683,297.297 134.839,296.450 136.040 C 295.858 136.879,294.583 138.967,294.583 139.096 C 294.583 139.145,294.312 139.766,293.979 140.477 C 291.658 145.450,291.465 153.149,293.535 158.229 C 299.496 172.858,316.570 177.925,329.298 168.842 C 331.054 167.589,370.658 127.879,372.176 125.849 C 377.465 118.778,378.125 106.644,373.568 100.246 C 373.325 99.903,373.125 99.568,373.125 99.501 C 373.125 98.733,371.565 97.100,353.046 78.490 C 341.015 66.399,338.599 64.097,339.691 65.763 M353.509 99.531 C 353.613 99.732,354.003 100.974,354.376 102.292 C 354.749 103.609,355.230 105.183,355.444 105.789 C 355.658 106.395,355.833 107.103,355.833 107.362 C 355.833 107.621,355.912 107.922,356.008 108.031 C 356.104 108.140,356.306 108.792,356.457 109.479 C 356.833 111.191,357.151 111.653,359.677 114.163 C 360.886 115.364,361.875 116.462,361.875 116.603 C 361.875 116.839,359.958 118.776,359.585 118.916 C 359.494 118.950,358.330 117.890,356.999 116.561 C 354.380 113.944,354.720 114.137,350.625 112.931 C 349.766 112.677,348.500 112.299,347.813 112.089 C 347.125 111.880,345.640 111.449,344.512 111.133 C 342.021 110.434,341.942 110.284,343.355 108.957 C 344.472 107.909,344.953 107.745,345.876 108.101 C 346.139 108.203,346.870 108.430,347.500 108.606 C 348.130 108.782,349.614 109.226,350.797 109.593 C 353.344 110.382,353.476 110.323,352.941 108.635 C 351.984 105.622,351.314 103.324,350.975 101.895 C 350.879 101.493,351.069 101.177,351.938 100.289 C 353.144 99.057,353.238 99.012,353.509 99.531 M341.491 117.357 C 343.708 118.424,346.594 119.807,347.905 120.430 C 355.277 123.932,354.957 123.665,353.570 125.158 C 352.357 126.463,352.213 126.473,350.211 125.411 C 348.210 124.349,348.599 124.206,345.758 127.055 L 343.293 129.526 343.628 130.128 C 343.813 130.458,344.053 130.870,344.162 131.042 C 344.412 131.434,345.208 133.264,345.208 133.445 C 345.208 133.678,343.097 135.625,342.844 135.625 C 342.604 135.625,342.184 134.804,338.953 128.021 C 338.025 126.073,336.662 123.259,335.925 121.768 C 334.141 118.164,334.168 117.857,336.423 115.990 C 337.315 115.251,336.866 115.130,341.491 117.357 M338.673 119.748 C 338.514 120.004,341.684 126.250,341.972 126.250 C 342.648 126.250,345.312 123.091,344.894 122.785 C 344.511 122.506,340.716 120.604,340.000 120.332 C 339.828 120.267,339.485 120.067,339.239 119.887 C 338.992 119.706,338.737 119.644,338.673 119.748 M327.490 136.151 C 330.407 139.070,332.849 141.458,332.918 141.458 C 332.987 141.458,334.108 140.380,335.408 139.063 C 336.708 137.745,337.887 136.667,338.027 136.667 C 338.310 136.667,340.000 138.235,340.000 138.498 C 340.000 138.815,332.809 146.045,332.495 146.043 C 332.093 146.041,319.583 133.525,319.583 133.124 C 319.583 132.719,321.468 130.832,321.867 130.838 C 322.043 130.841,324.574 133.232,327.490 136.151 M318.875 139.371 C 323.412 142.077,323.747 146.134,319.777 150.282 C 318.697 151.411,317.781 152.420,317.742 152.523 C 317.704 152.627,318.571 153.619,319.670 154.728 C 320.768 155.838,321.667 156.863,321.667 157.007 C 321.667 157.370,319.760 159.156,319.367 159.162 C 318.985 159.168,306.595 146.815,306.490 146.324 C 306.333 145.593,312.916 139.403,314.342 138.941 C 315.405 138.596,317.987 138.841,318.875 139.371 M314.731 142.375 C 314.128 142.642,311.042 145.585,311.042 145.893 C 311.042 146.131,315.125 150.208,315.363 150.208 C 315.836 150.208,318.715 146.935,318.959 146.120 C 319.624 143.903,316.842 141.440,314.731 142.375 " stroke="none" fill="#06ca06" fill-rule="evenodd"></path><path id="path3" d="M312.604 50.619 C 305.859 51.422,299.925 55.120,295.710 61.147 C 291.935 66.545,290.857 74.837,293.056 81.563 C 294.717 86.644,295.596 87.729,308.608 100.774 C 314.691 106.871,319.625 111.905,319.573 111.959 C 319.522 112.014,314.457 117.103,308.319 123.269 C 296.516 135.126,295.845 135.894,294.006 139.671 C 288.229 151.537,293.895 166.623,306.042 171.712 C 309.754 173.267,311.573 173.593,315.938 173.483 C 320.190 173.376,321.426 173.138,324.619 171.809 C 329.181 169.911,328.248 170.757,351.518 147.391 C 373.764 125.053,373.394 125.467,375.255 120.841 C 376.727 117.182,377.380 111.166,376.654 107.957 C 376.096 105.491,375.992 105.078,375.834 104.688 C 375.742 104.458,375.451 103.708,375.189 103.021 C 374.927 102.333,374.556 101.490,374.364 101.146 C 373.519 99.633,372.979 98.773,372.137 97.604 C 370.842 95.804,330.587 55.561,329.729 55.208 C 329.590 55.151,328.914 54.719,328.228 54.248 C 324.030 51.370,318.020 49.974,312.604 50.619 M353.046 78.490 C 371.565 97.100,373.125 98.733,373.125 99.501 C 373.125 99.568,373.325 99.903,373.568 100.246 C 378.125 106.644,377.465 118.778,372.176 125.849 C 370.658 127.879,331.054 167.589,329.298 168.842 C 316.570 177.925,299.496 172.858,293.535 158.229 C 291.465 153.149,291.658 145.450,293.979 140.477 C 294.312 139.766,294.583 139.145,294.583 139.096 C 294.583 138.967,295.858 136.879,296.450 136.040 C 297.297 134.839,298.413 133.683,309.375 122.656 C 315.161 116.835,319.922 111.998,319.953 111.905 C 319.985 111.813,324.020 107.714,328.919 102.796 C 339.248 92.427,340.660 90.664,341.997 86.458 C 342.161 85.943,342.384 85.240,342.494 84.896 C 344.333 79.113,343.151 71.045,339.691 65.763 C 338.599 64.097,341.015 66.399,353.046 78.490 " stroke="none" fill="#23821c" fill-rule="evenodd"></path><path id="path4" d="M209.097 54.306 C 208.864 54.539,208.932 138.470,209.167 139.831 C 209.281 140.497,209.473 141.605,209.592 142.293 C 210.741 148.928,215.795 156.647,221.475 160.443 C 225.447 163.097,228.315 164.182,234.045 165.198 C 235.647 165.482,239.679 165.478,241.434 165.191 C 243.268 164.891,246.455 164.164,246.862 163.952 C 247.041 163.859,247.765 163.580,248.471 163.332 C 251.101 162.406,257.275 158.505,257.287 157.761 C 257.290 157.618,254.971 154.857,252.135 151.625 C 249.299 148.394,246.911 145.651,246.828 145.531 C 246.728 145.386,246.484 145.430,246.099 145.665 C 241.737 148.321,239.140 149.064,236.048 148.543 C 231.946 147.851,227.912 144.096,227.040 140.158 C 226.471 137.588,226.415 135.745,226.322 116.200 L 226.224 95.629 236.253 95.575 L 246.281 95.521 247.944 91.042 C 248.858 88.578,249.688 86.375,249.788 86.146 C 249.888 85.917,250.405 84.510,250.937 83.021 C 251.469 81.531,252.034 79.969,252.193 79.550 C 252.597 78.484,253.352 78.542,239.045 78.542 L 226.250 78.542 226.250 66.354 L 226.250 54.167 217.743 54.167 C 213.064 54.167,209.174 54.229,209.097 54.306 M226.092 66.510 L 226.146 78.646 239.115 78.699 C 248.404 78.738,252.083 78.818,252.083 78.983 C 252.083 79.192,250.859 82.642,250.429 83.646 C 250.331 83.875,250.138 84.391,250.000 84.792 C 249.862 85.193,249.672 85.708,249.578 85.938 C 249.440 86.271,247.906 90.404,246.408 94.479 C 246.281 94.823,246.140 95.151,246.093 95.208 C 246.046 95.266,241.538 95.359,236.077 95.417 L 226.146 95.521 226.086 113.958 C 226.020 134.466,226.147 138.414,226.947 140.780 C 229.613 148.660,238.234 151.328,245.305 146.463 C 245.832 146.101,246.388 145.835,246.543 145.871 C 246.813 145.935,256.694 157.121,256.845 157.535 C 257.057 158.113,253.162 160.885,250.197 162.268 C 231.691 170.897,211.512 159.289,209.389 138.794 C 209.142 136.417,209.062 54.758,209.306 54.514 C 209.382 54.438,213.178 54.375,217.741 54.375 L 226.038 54.375 226.092 66.510 M83.173 77.408 C 70.220 79.812,62.228 88.908,62.225 101.250 C 62.222 111.981,68.257 119.955,80.417 125.285 C 82.793 126.326,82.987 126.409,84.896 127.191 C 85.927 127.613,87.380 128.240,88.125 128.583 C 88.870 128.927,89.901 129.376,90.417 129.583 C 98.757 132.918,102.054 137.882,99.530 143.305 C 97.531 147.603,90.268 150.016,84.122 148.427 C 80.473 147.483,76.010 144.523,72.891 140.978 C 71.086 138.927,71.195 138.965,69.883 139.943 C 69.304 140.375,68.240 141.151,67.519 141.667 C 65.888 142.835,62.467 145.334,62.188 145.564 C 62.073 145.657,61.018 146.417,59.844 147.252 C 57.341 149.030,57.408 148.800,58.838 150.693 C 64.072 157.622,73.207 163.279,81.386 164.657 C 87.286 165.651,89.144 165.667,95.104 164.772 C 105.712 163.179,114.852 155.257,117.073 145.729 C 117.207 145.156,117.407 144.341,117.517 143.918 C 117.826 142.735,117.762 136.575,117.425 135.000 C 115.919 127.964,111.170 122.073,103.705 117.981 C 101.928 117.007,97.966 115.000,97.820 115.000 C 97.774 115.000,97.145 114.731,96.421 114.401 C 95.697 114.072,93.885 113.266,92.396 112.610 C 81.992 108.029,79.413 105.682,79.618 100.985 C 79.992 92.446,91.113 90.584,99.310 97.688 C 101.403 99.502,100.933 99.554,104.221 97.149 C 115.362 89.001,114.252 90.169,112.709 88.230 C 108.358 82.762,101.354 78.717,94.063 77.460 C 92.063 77.115,84.932 77.081,83.173 77.408 M94.896 77.914 C 98.699 78.725,103.504 80.661,105.891 82.344 C 109.568 84.937,113.876 89.290,113.448 89.982 C 113.297 90.228,101.337 98.958,101.153 98.958 C 101.084 98.958,100.773 98.699,100.462 98.382 C 94.294 92.101,84.875 91.239,80.777 96.580 C 77.078 101.400,79.743 106.986,87.501 110.677 C 90.066 111.897,92.298 112.917,92.405 112.917 C 92.452 112.917,93.125 113.209,93.901 113.566 C 94.677 113.923,96.127 114.575,97.123 115.015 C 111.428 121.332,117.500 128.665,117.500 139.625 C 117.500 142.211,117.394 143.071,116.737 145.833 C 112.354 164.239,86.552 171.152,68.062 158.876 C 64.401 156.446,59.638 151.855,58.061 149.238 C 57.910 148.988,58.476 148.553,66.652 142.633 L 71.116 139.401 71.961 140.377 C 79.040 148.562,88.061 151.332,95.447 147.589 C 101.076 144.736,102.284 138.541,98.086 134.054 C 95.979 131.801,94.619 131.061,85.104 126.982 C 77.830 123.864,76.253 123.078,73.453 121.170 C 56.336 109.514,59.630 85.021,79.167 78.684 C 80.534 78.240,82.924 77.713,84.896 77.420 C 86.571 77.171,92.871 77.482,94.896 77.914 M119.375 78.949 C 119.375 79.172,119.464 79.571,119.574 79.834 C 119.683 80.097,120.392 82.000,121.150 84.063 C 123.214 89.677,123.349 90.043,123.644 90.833 C 123.794 91.234,124.113 92.067,124.354 92.684 C 124.595 93.301,124.792 93.888,124.792 93.988 C 124.792 94.089,124.968 94.569,125.183 95.054 C 125.399 95.540,126.016 97.156,126.554 98.646 C 127.092 100.135,127.797 102.057,128.120 102.917 C 130.110 108.210,130.706 109.809,131.768 112.708 C 132.418 114.484,133.188 116.547,133.477 117.292 C 133.767 118.036,134.171 119.161,134.375 119.792 C 134.580 120.422,134.862 121.219,135.004 121.563 C 135.372 122.459,135.528 122.866,136.042 124.271 C 136.293 124.958,136.580 125.708,136.678 125.938 C 136.777 126.167,137.198 127.292,137.614 128.438 C 138.030 129.583,139.260 132.911,140.347 135.833 C 141.435 138.755,142.654 142.036,143.057 143.125 C 143.460 144.214,144.056 145.807,144.383 146.667 C 144.709 147.526,145.505 149.682,146.151 151.458 C 146.798 153.234,147.406 154.875,147.503 155.104 C 147.648 155.448,149.410 160.249,150.256 162.604 C 150.683 163.791,150.404 163.759,159.994 163.746 C 164.868 163.739,168.952 163.667,169.069 163.586 C 169.256 163.455,170.063 161.475,171.252 158.229 C 171.461 157.656,171.969 156.297,172.380 155.208 C 172.790 154.120,173.126 153.158,173.126 153.071 C 173.125 152.983,173.306 152.515,173.528 152.029 C 173.750 151.543,174.209 150.349,174.548 149.375 C 175.200 147.502,175.755 146.002,176.051 145.313 C 176.280 144.776,178.221 139.501,178.887 137.604 C 179.168 136.802,179.482 135.958,179.584 135.729 C 179.686 135.500,180.300 133.859,180.950 132.083 C 181.600 130.307,182.642 127.495,183.267 125.833 C 183.891 124.172,184.499 122.531,184.618 122.188 C 184.847 121.525,185.081 120.922,185.409 120.156 C 185.519 119.898,185.767 119.172,185.961 118.542 C 186.155 117.911,186.379 117.302,186.460 117.188 C 186.541 117.073,186.658 116.792,186.720 116.563 C 186.783 116.333,187.115 115.396,187.458 114.479 C 189.724 108.422,190.814 105.501,192.006 102.292 C 193.437 98.438,193.674 97.797,194.893 94.479 C 195.799 92.014,196.594 89.891,197.466 87.604 C 199.809 81.457,200.668 78.918,200.471 78.721 C 200.119 78.369,182.256 78.599,182.078 78.958 C 181.797 79.525,181.506 80.279,180.349 83.438 C 179.719 85.156,178.571 88.250,177.798 90.313 C 177.024 92.375,176.212 94.578,175.993 95.208 C 175.775 95.839,175.514 96.542,175.413 96.771 C 175.313 97.000,174.894 98.125,174.482 99.271 C 174.070 100.417,173.652 101.542,173.553 101.771 C 173.455 102.000,173.168 102.750,172.917 103.438 C 172.665 104.125,172.386 104.875,172.296 105.104 C 172.207 105.333,171.891 106.177,171.595 106.979 C 171.299 107.781,170.688 109.422,170.239 110.625 C 169.789 111.828,169.074 113.750,168.650 114.896 C 168.226 116.042,167.560 117.823,167.171 118.854 C 166.781 119.885,165.988 122.042,165.408 123.646 C 164.347 126.581,164.203 126.963,163.787 127.917 C 163.663 128.203,163.285 129.234,162.948 130.208 C 162.610 131.182,162.036 132.727,161.671 133.641 C 161.307 134.556,160.817 135.868,160.583 136.558 C 160.348 137.248,160.098 137.878,160.026 137.958 C 159.915 138.081,159.204 136.264,156.425 128.750 C 156.192 128.120,155.920 127.417,155.822 127.188 C 155.723 126.958,155.117 125.318,154.476 123.542 C 153.288 120.253,153.211 120.052,152.625 118.719 C 152.442 118.300,152.292 117.867,152.292 117.757 C 152.292 117.646,152.109 117.098,151.887 116.538 C 151.664 115.979,150.859 113.833,150.097 111.771 C 149.336 109.708,148.497 107.458,148.234 106.771 C 147.971 106.083,147.269 104.208,146.675 102.604 C 146.081 101.000,145.326 98.984,144.998 98.125 C 144.670 97.266,144.023 95.515,143.560 94.234 C 143.098 92.954,142.490 91.313,142.210 90.589 C 141.930 89.864,141.172 87.818,140.526 86.042 C 139.881 84.266,139.271 82.625,139.172 82.396 C 139.073 82.167,138.730 81.276,138.409 80.417 C 138.089 79.557,137.729 78.785,137.611 78.701 C 137.029 78.287,119.375 78.526,119.375 78.949 M138.175 80.521 C 138.516 81.438,139.059 82.891,139.382 83.750 C 139.706 84.609,140.592 87.000,141.353 89.063 C 142.113 91.125,142.816 93.000,142.915 93.229 C 143.014 93.458,143.623 95.099,144.267 96.875 C 144.912 98.651,145.519 100.292,145.616 100.521 C 145.713 100.750,145.982 101.453,146.213 102.083 C 147.590 105.838,148.222 107.543,148.672 108.714 C 148.950 109.438,149.555 111.079,150.017 112.359 C 150.479 113.640,150.938 114.875,151.037 115.104 C 151.136 115.333,151.824 117.161,152.567 119.167 C 153.309 121.172,154.526 124.453,155.271 126.458 C 156.015 128.464,157.248 131.792,158.010 133.854 C 159.727 138.504,159.743 138.542,159.964 138.542 C 160.145 138.542,160.826 136.820,163.013 130.833 C 164.408 127.012,164.880 125.741,165.525 124.063 C 165.789 123.375,166.210 122.250,166.460 121.563 C 166.711 120.875,166.993 120.125,167.088 119.896 C 167.183 119.667,167.604 118.542,168.025 117.396 C 168.445 116.250,169.056 114.609,169.382 113.750 C 169.708 112.891,170.502 110.734,171.148 108.958 C 171.793 107.182,172.399 105.542,172.495 105.313 C 172.590 105.083,172.856 104.380,173.087 103.750 C 173.318 103.120,173.931 101.479,174.449 100.104 C 174.967 98.729,176.431 94.792,177.702 91.354 C 178.974 87.917,180.283 84.401,180.613 83.542 C 180.943 82.682,181.424 81.370,181.683 80.625 C 181.942 79.880,182.243 79.154,182.352 79.010 C 182.551 78.750,199.989 78.600,200.245 78.856 C 200.303 78.915,200.193 79.407,199.999 79.950 C 199.612 81.035,199.594 81.084,198.745 83.333 C 198.421 84.193,197.299 87.240,196.251 90.104 C 195.204 92.969,194.269 95.500,194.173 95.729 C 194.077 95.958,193.812 96.661,193.583 97.292 C 193.354 97.922,192.885 99.188,192.540 100.104 C 192.196 101.021,191.570 102.708,191.150 103.854 C 190.729 105.000,190.307 106.125,190.211 106.354 C 190.043 106.756,189.376 108.550,187.846 112.708 C 185.639 118.710,184.894 120.720,184.179 122.604 C 183.744 123.750,182.617 126.797,181.674 129.375 C 180.731 131.953,179.880 134.250,179.783 134.479 C 179.686 134.708,179.269 135.833,178.857 136.979 C 178.445 138.125,178.027 139.250,177.928 139.479 C 177.830 139.708,177.562 140.411,177.333 141.042 C 177.104 141.672,176.629 142.938,176.278 143.854 C 175.630 145.547,173.320 151.821,172.365 154.479 C 172.077 155.281,171.757 156.125,171.653 156.354 C 171.549 156.583,170.986 158.081,170.402 159.682 C 169.818 161.282,169.251 162.759,169.142 162.963 C 168.886 163.440,151.257 163.547,150.892 163.073 C 150.647 162.754,149.736 160.405,147.801 155.104 C 147.383 153.958,146.013 150.255,144.756 146.875 C 143.499 143.495,142.281 140.214,142.048 139.583 C 141.816 138.953,141.548 138.250,141.452 138.021 C 141.357 137.792,140.139 134.510,138.747 130.729 C 137.354 126.948,135.808 122.776,135.310 121.458 C 134.812 120.141,134.063 118.125,133.645 116.979 C 133.227 115.833,132.666 114.333,132.399 113.646 C 132.132 112.958,131.244 110.568,130.427 108.333 C 129.609 106.099,128.653 103.521,128.303 102.604 C 127.487 100.466,127.069 99.337,126.144 96.771 C 125.731 95.625,125.314 94.500,125.217 94.271 C 125.120 94.042,124.850 93.339,124.618 92.708 C 124.385 92.078,123.572 89.875,122.811 87.813 C 122.049 85.750,121.098 83.172,120.696 82.083 C 120.295 80.995,119.880 79.889,119.775 79.626 C 119.670 79.362,119.583 79.057,119.583 78.946 C 119.583 78.820,122.907 78.766,128.570 78.800 L 137.556 78.854 138.175 80.521 M351.549 100.677 L 350.938 101.354 351.615 100.742 C 352.246 100.172,352.387 100.000,352.226 100.000 C 352.191 100.000,351.886 100.305,351.549 100.677 M358.333 113.021 C 359.072 113.766,359.722 114.375,359.780 114.375 C 359.837 114.375,359.280 113.766,358.542 113.021 C 357.803 112.276,357.153 111.667,357.095 111.667 C 357.038 111.667,357.595 112.276,358.333 113.021 M344.155 124.323 L 343.438 125.104 344.219 124.386 C 344.946 123.718,345.096 123.542,344.937 123.542 C 344.902 123.542,344.550 123.893,344.155 124.323 M340.770 124.685 C 340.960 125.084,341.153 125.374,341.199 125.329 C 341.294 125.234,340.661 123.958,340.519 123.958 C 340.466 123.958,340.579 124.285,340.770 124.685 M345.622 127.031 L 343.229 129.479 345.677 127.087 C 347.023 125.771,348.125 124.669,348.125 124.639 C 348.125 124.489,347.844 124.757,345.622 127.031 M342.708 125.729 C 342.129 126.346,341.917 126.374,341.522 125.885 C 341.256 125.556,341.249 125.567,341.454 125.990 C 341.759 126.619,342.097 126.580,342.813 125.833 C 343.142 125.490,343.363 125.208,343.304 125.208 C 343.246 125.208,342.977 125.443,342.708 125.729 M344.063 131.250 C 344.240 131.594,344.433 131.875,344.490 131.875 C 344.547 131.875,344.449 131.594,344.271 131.250 C 344.093 130.906,343.901 130.625,343.843 130.625 C 343.786 130.625,343.885 130.906,344.063 131.250 M320.513 131.927 L 319.479 133.021 320.573 131.987 C 321.174 131.418,321.667 130.926,321.667 130.893 C 321.667 130.738,321.474 130.911,320.513 131.927 M323.021 131.875 C 323.585 132.448,324.094 132.917,324.151 132.917 C 324.208 132.917,323.793 132.448,323.229 131.875 C 322.665 131.302,322.156 130.833,322.099 130.833 C 322.042 130.833,322.457 131.302,323.021 131.875 M340.833 131.955 C 340.833 132.178,341.453 133.333,341.573 133.333 C 341.630 133.333,341.522 133.029,341.333 132.656 C 340.946 131.896,340.833 131.737,340.833 131.955 M325.938 139.792 C 329.374 143.229,332.232 146.042,332.289 146.042 C 332.346 146.042,329.582 143.229,326.146 139.792 C 322.710 136.354,319.852 133.542,319.794 133.542 C 319.737 133.542,322.501 136.354,325.938 139.792 M328.021 136.875 C 329.507 138.365,330.770 139.583,330.827 139.583 C 330.885 139.583,329.715 138.365,328.229 136.875 C 326.743 135.385,325.480 134.167,325.423 134.167 C 325.365 134.167,326.535 135.385,328.021 136.875 M309.372 143.073 L 306.354 146.146 309.427 143.128 C 312.282 140.324,312.594 140.000,312.445 140.000 C 312.415 140.000,311.032 141.383,309.372 143.073 M331.979 140.833 C 332.427 141.292,332.840 141.667,332.897 141.667 C 332.954 141.667,332.635 141.292,332.188 140.833 C 331.740 140.375,331.327 140.000,331.270 140.000 C 331.212 140.000,331.532 140.375,331.979 140.833 M312.402 144.160 C 311.494 145.074,310.793 145.848,310.844 145.882 C 310.896 145.916,311.681 145.168,312.591 144.222 C 313.500 143.275,314.201 142.500,314.148 142.500 C 314.096 142.500,313.310 143.247,312.402 144.160 M333.743 144.948 L 332.604 146.146 333.802 145.007 C 334.915 143.949,335.095 143.750,334.941 143.750 C 334.908 143.750,334.369 144.289,333.743 144.948 M307.708 147.813 C 308.447 148.557,309.097 149.167,309.155 149.167 C 309.212 149.167,308.655 148.557,307.917 147.813 C 307.178 147.068,306.528 146.458,306.470 146.458 C 306.413 146.458,306.970 147.068,307.708 147.813 M318.750 146.689 C 318.750 147.005,315.828 150.005,315.313 150.218 C 315.013 150.342,314.988 150.394,315.223 150.403 C 315.585 150.418,318.958 147.066,318.958 146.692 C 318.958 146.564,318.911 146.458,318.854 146.458 C 318.797 146.458,318.750 146.562,318.750 146.689 M318.980 150.915 C 318.077 151.825,317.497 152.571,317.563 152.738 C 317.652 152.961,317.679 152.956,317.692 152.713 C 317.701 152.544,318.386 151.724,319.214 150.890 C 320.041 150.057,320.672 149.375,320.615 149.375 C 320.557 149.375,319.822 150.068,318.980 150.915 M311.979 152.083 C 312.427 152.542,312.840 152.917,312.897 152.917 C 312.954 152.917,312.635 152.542,312.188 152.083 C 311.740 151.625,311.327 151.250,311.270 151.250 C 311.212 151.250,311.532 151.625,311.979 152.083 M320.513 158.177 L 319.479 159.271 320.573 158.237 C 321.174 157.668,321.667 157.176,321.667 157.143 C 321.667 156.988,321.474 157.161,320.513 158.177 " stroke="none" fill="#666666" fill-rule="evenodd"></path></g></svg>