<?xml version="1.0" standalone="no"?>
<!DOCTYPE svg PUBLIC "-//W3C//DTD SVG 20010904//EN"
 "http://www.w3.org/TR/2001/REC-SVG-20010904/DTD/svg10.dtd">
<svg version="1.0" xmlns="http://www.w3.org/2000/svg"
 width="1920.000000pt" height="1080.000000pt" viewBox="0 0 1920.000000 1080.000000"
 preserveAspectRatio="xMidYMid meet">
<metadata>
Created by potrace 1.15, written by Peter Selinger 2001-2017
</metadata>
<g transform="translate(0.000000,1080.000000) scale(0.100000,-0.100000)"
fill="#000000" stroke="none">
<path d="M0 5400 l0 -5400 9600 0 9600 0 0 5400 0 5400 -9600 0 -9600 0 0
-5400z m10858 2208 l2 -588 625 0 c344 0 625 -3 625 -7 0 -7 -42 -120 -70
-188 -5 -11 -34 -90 -65 -175 -31 -85 -74 -200 -95 -255 -21 -55 -44 -117 -51
-137 l-13 -38 -478 0 -478 0 0 -1002 c0 -956 1 -1007 20 -1098 27 -130 68
-208 160 -301 69 -69 138 -114 223 -143 140 -47 349 -8 502 94 33 22 65 40 70
39 15 -1 498 -559 499 -578 3 -44 -310 -233 -479 -289 -342 -114 -720 -93
-1032 58 -281 135 -489 338 -622 608 -73 147 -103 229 -137 372 -17 71 -18
195 -21 2135 -2 1133 -1 2065 2 2072 3 11 87 13 407 11 l403 -3 3 -587z m5554
-43 c55 -55 395 -397 757 -760 590 -593 741 -754 741 -793 0 -4 8 -17 18 -28
34 -37 88 -173 122 -305 19 -75 21 -104 18 -279 -4 -176 -7 -204 -32 -285 -34
-114 -90 -232 -157 -332 -40 -60 -228 -254 -797 -824 -409 -411 -748 -753
-753 -760 -5 -8 -9 -9 -9 -4 0 6 -4 4 -9 -4 -22 -35 -418 -425 -487 -481 -117
-93 -297 -173 -474 -210 -176 -37 -426 -17 -590 47 -118 46 -211 95 -261 137
-17 14 -34 26 -37 26 -24 2 -242 233 -242 257 0 7 -4 13 -9 13 -12 0 -104 182
-126 250 -10 30 -20 62 -23 70 -3 8 -7 26 -9 40 -2 14 -9 39 -16 55 -8 20 -12
92 -11 210 0 172 1 185 32 293 36 126 141 352 165 352 4 0 7 6 7 13 0 8 28 44
63 80 68 73 825 840 1462 1481 220 221 423 429 450 462 67 78 125 161 125 178
0 7 7 19 15 26 24 20 65 119 106 256 16 55 28 177 28 289 1 130 -8 193 -48
352 -14 53 -88 205 -131 269 -41 61 -26 48 112 -91z m-12016 -476 c400 -39
773 -235 1007 -528 48 -61 56 -76 45 -87 -7 -7 -143 -107 -302 -223 l-289
-209 -81 72 c-163 145 -329 216 -506 216 -81 0 -194 -26 -263 -61 -57 -30
-143 -119 -169 -176 -18 -39 -22 -66 -22 -148 0 -123 16 -165 103 -257 93
-100 189 -156 527 -307 387 -173 459 -208 562 -270 244 -147 437 -337 526
-521 70 -143 94 -231 106 -387 29 -372 -90 -697 -347 -943 -226 -218 -512
-342 -873 -379 -553 -57 -1102 154 -1489 573 -87 95 -154 182 -149 195 1 5
122 96 268 202 146 105 285 207 309 225 24 19 49 34 55 33 6 0 38 -32 71 -71
149 -177 365 -321 564 -375 74 -20 285 -21 366 0 187 46 313 135 374 266 23
49 26 68 26 161 0 96 -3 110 -29 164 -39 79 -131 169 -236 231 -47 27 -224
109 -395 183 -381 163 -481 212 -615 301 -273 181 -446 414 -516 696 -25 98
-28 128 -27 275 0 165 12 254 50 370 107 330 381 595 734 711 115 38 165 49
284 64 130 17 197 17 331 4z m2307 -331 c54 -145 119 -317 144 -383 56 -150
73 -195 118 -320 20 -55 54 -145 75 -200 21 -55 93 -248 160 -430 119 -323
183 -494 240 -645 16 -41 59 -156 95 -255 119 -324 133 -359 142 -362 4 -2 48
104 96 234 49 131 108 290 132 353 24 63 59 158 78 210 20 52 92 248 162 435
70 187 155 417 190 510 35 94 80 215 101 270 20 55 44 118 51 140 19 54 165
445 212 570 21 55 41 108 44 118 6 16 36 17 442 17 275 0 435 -4 435 -10 0 -9
-83 -239 -135 -375 -15 -38 -35 -92 -45 -120 -41 -112 -92 -251 -100 -270 -4
-11 -17 -45 -28 -75 -53 -145 -96 -262 -123 -330 -15 -41 -65 -174 -109 -295
-45 -121 -94 -254 -110 -295 -25 -66 -80 -214 -280 -755 -29 -77 -68 -183 -87
-235 -19 -52 -38 -104 -43 -115 -5 -11 -47 -126 -95 -255 -103 -279 -147 -399
-185 -500 -15 -41 -49 -131 -75 -200 -25 -69 -56 -150 -69 -180 l-22 -55 -434
0 -435 0 -18 35 c-9 19 -47 116 -83 215 -35 99 -78 214 -94 255 -16 41 -44
118 -63 170 -20 52 -78 210 -130 350 -53 140 -112 300 -132 355 -50 137 -92
250 -165 445 -110 294 -247 663 -273 735 -14 39 -30 81 -35 95 -6 14 -20 52
-32 85 -12 33 -26 69 -30 80 -9 21 -157 421 -217 585 -19 52 -47 129 -63 170
-15 41 -44 118 -63 170 -19 52 -54 144 -76 203 -23 59 -41 110 -41 112 0 3
197 5 438 5 l437 0 98 -262z"/>
</g>
</svg>
